<svg width="120" height="20" viewBox="0 0 120 20" fill="none" xmlns="http://www.w3.org/2000/svg" xmlns:xlink="http://www.w3.org/1999/xlink" aria-hidden="true" role="img" class="iconify iconify--logos" preserveAspectRatio="xMidYMid meet"><path d="M115.004 2.04295C115.004 0.914656 115.917 0 117.043 0C118.17 0 119.082 0.914656 119.082 2.04295C119.082 3.17122 118.17 4.08588 117.043 4.08588C115.917 4.08588 115.004 3.17122 115.004 2.04295Z" fill="#EEEEEE"/><path d="M102.097 19.1593V0H105.497V7.98303C105.939 7.25569 106.532 6.68801 107.276 6.27999C108.037 5.85422 108.905 5.64134 109.879 5.64134C111.508 5.64134 112.765 6.1558 113.65 7.18473C114.553 8.21365 115.004 9.72156 115.004 11.7084V19.1593H111.631V12.0278C111.631 10.8924 111.401 10.0231 110.941 9.41998C110.498 8.81682 109.79 8.51523 108.816 8.51523C107.86 8.51523 107.064 8.8523 106.426 9.52642C105.807 10.2005 105.497 11.1408 105.497 12.3471V19.1593H102.097Z" fill="#EEEEEE"/><path d="M97.8512 19.1593C96.4703 19.1593 95.3637 18.8222 94.5316 18.1481C93.6994 17.474 93.2834 16.2765 93.2834 14.5557V8.80795H91.026V5.96066H93.2834V2.42152H96.6827V5.96066H100.241V8.80795H96.6827V14.5823C96.6827 15.221 96.8155 15.6645 97.0811 15.9128C97.3643 16.1435 97.8424 16.2588 98.5151 16.2588H100.162V19.1593H97.8512Z" fill="#EEEEEE"/><path d="M82.2488 19.1593V5.96066H85.2763L85.595 8.4354C86.073 7.58388 86.7193 6.90976 87.5337 6.41304C88.3658 5.89857 89.0241 5.96067 90.1395 5.96067V8.7971H89.4989C88.7553 8.7971 88.0778 9.00191 87.4936 9.23254C86.9093 9.46316 86.4626 10.2094 86.1262 10.7771C85.8075 11.3448 85.6481 12.1342 85.6481 13.1454V19.1593H82.2488Z" fill="#EEEEEE"/><path d="M73.5262 19.4786C72.2514 19.4786 71.1006 19.1859 70.0737 18.6005C69.0645 18.015 68.2589 17.2079 67.657 16.1789C67.0727 15.1323 66.7806 13.926 66.7806 12.56C66.7806 11.194 67.0816 9.99653 67.6835 8.96761C68.2855 7.92094 69.0911 7.1049 70.1003 6.51948C71.1272 5.93405 72.278 5.64134 73.5527 5.64134C74.8098 5.64134 75.9429 5.93405 76.9521 6.51948C77.979 7.1049 78.7845 7.92094 79.3688 8.96761C79.9708 9.99653 80.2717 11.194 80.2717 12.56C80.2717 13.926 79.9708 15.1323 79.3688 16.1789C78.7845 17.2079 77.979 18.015 76.9521 18.6005C75.9252 19.1859 74.7832 19.4786 73.5262 19.4786ZM73.5262 16.5249C74.4114 16.5249 75.1816 16.1967 75.8367 15.5403C76.4917 14.8662 76.8193 13.8727 76.8193 12.56C76.8193 11.2472 76.4917 10.2626 75.8367 9.60625C75.1816 8.93213 74.4203 8.59507 73.5527 8.59507C72.6498 8.59507 71.8708 8.93213 71.2157 9.60625C70.5783 10.2626 70.2596 11.2472 70.2596 12.56C70.2596 13.8727 70.5783 14.8662 71.2157 15.5403C71.8708 16.1967 72.6409 16.5249 73.5262 16.5249Z" fill="#EEEEEE"/><path d="M52.1104 19.1593V5.96066H55.1114L55.3769 8.19591C55.7842 7.41535 56.3684 6.79445 57.1297 6.33321C57.9088 5.87196 58.8206 5.64134 59.8651 5.64134C61.494 5.64134 62.7599 6.15581 63.6628 7.18473C64.5658 8.21365 65.0173 9.72156 65.0173 11.7084V19.1593H61.6179V12.0278C61.6179 10.8924 61.3878 10.0231 60.9274 9.41998C60.4671 8.81682 59.7501 8.51524 58.7763 8.51524C57.8202 8.51524 57.0324 8.8523 56.4127 9.52642C55.8107 10.2005 55.5097 11.1408 55.5097 12.3471V19.1593H52.1104Z" fill="#EEEEEE"/><path d="M43.656 19.4786C42.6645 19.4786 41.797 19.2923 41.0534 18.9198C40.3098 18.5472 39.7078 18.0239 39.2475 17.3498L38.8757 19.1593H35.8481V0H39.2475V7.84998C39.6724 7.26456 40.2301 6.7501 40.9206 6.3066C41.6288 5.86309 42.5406 5.64134 43.656 5.64134C44.8953 5.64134 46.0019 5.94292 46.9757 6.54609C47.9494 7.14925 48.7196 7.97416 49.2862 9.02083C49.8527 10.0675 50.136 11.2561 50.136 12.5866C50.136 13.9171 49.8527 15.1057 49.2862 16.1523C48.7196 17.1813 47.9494 17.9973 46.9757 18.6005C46.0019 19.1859 44.8953 19.4786 43.656 19.4786ZM42.9389 16.4983C44.019 16.4983 44.913 16.1346 45.6212 15.4073C46.3294 14.6799 46.6835 13.7397 46.6835 12.5866C46.6835 11.4335 46.3294 10.4844 45.6212 9.7393C44.913 8.99422 44.019 8.62167 42.9389 8.62167C41.8412 8.62167 40.9383 8.99422 40.2301 9.7393C39.5396 10.4666 39.1944 11.4069 39.1944 12.56C39.1944 13.7131 39.5396 14.6622 40.2301 15.4073C40.9383 16.1346 41.8412 16.4983 42.9389 16.4983Z" fill="#EEEEEE"/><path d="M27.4386 19.4786C26.1107 19.4786 24.9333 19.1948 23.9065 18.6271C22.8796 18.0594 22.074 17.2611 21.4897 16.2322C20.9055 15.2032 20.6133 14.0147 20.6133 12.6664C20.6133 11.3004 20.8966 10.0852 21.4632 9.02083C22.0474 7.95642 22.8442 7.13151 23.8533 6.54609C24.8802 5.94293 26.0842 5.64134 27.4651 5.64134C28.7576 5.64134 29.8996 5.92518 30.8911 6.49287C31.8825 7.06055 32.6527 7.84111 33.2015 8.83456C33.7681 9.81026 34.0514 10.9013 34.0514 12.1076C34.0514 12.3027 34.0425 12.5068 34.0248 12.7196C34.0248 12.9325 34.016 13.1543 33.9983 13.3849H23.9861C24.057 14.4138 24.4111 15.221 25.0484 15.8064C25.7035 16.3918 26.4914 16.6845 27.412 16.6845C28.1025 16.6845 28.6779 16.5337 29.1383 16.2322C29.6163 15.9128 29.9704 15.5048 30.2006 15.0081H33.653C33.4052 15.8419 32.9891 16.6047 32.4048 17.2966C31.8383 17.9707 31.1301 18.5029 30.2802 18.8932C29.4481 19.2835 28.5009 19.4786 27.4386 19.4786ZM27.4651 8.40879C26.633 8.40879 25.8983 8.64829 25.2609 9.12727C24.6235 9.58851 24.2163 10.2981 24.0392 11.2561H30.5989C30.5458 10.3868 30.2271 9.69495 29.6429 9.18049C29.0586 8.66603 28.3327 8.40879 27.4651 8.40879Z" fill="#EEEEEE"/><path d="M3.85082 19.1593L0 5.96066H3.37279L5.65672 15.4605L8.31246 5.96066H12.0836L14.7393 15.4605L17.0498 5.96066H20.4226L16.5452 19.1593H13.0131L10.198 9.28693L7.38295 19.1593H3.85082Z" fill="#EEEEEE"/></svg>